<svg xmlns="http://www.w3.org/2000/svg" width="1000" height="425"><rect width="100%" height="100%" fill="white"/><text x="40" y="46" font-family="DejaVu Serif" font-size="31" font-weight="bold" fill="#1F4E79">Traduire une proportionnalité</text><text x="44" y="90" font-family="DejaVu Serif" font-size="23" fill="#333">1 kg de riz coûte 650 Ar : pour x kg, le prix est y = 650x.</text><rect x="90" y="150" width="170" height="66" fill="#D6E6F5" stroke="#1F4E79" stroke-width="2.5"/><text x="175" y="192" font-family="DejaVu Serif" font-size="25" fill="#222" font-weight="bold" text-anchor="middle">x (kg)</text><rect x="260" y="150" width="150" height="66" fill="#D6E6F5" stroke="#1F4E79" stroke-width="2.5"/><text x="335" y="192" font-family="DejaVu Serif" font-size="25" fill="#222" font-weight="bold" text-anchor="middle">1</text><rect x="410" y="150" width="150" height="66" fill="#D6E6F5" stroke="#1F4E79" stroke-width="2.5"/><text x="485" y="192" font-family="DejaVu Serif" font-size="25" fill="#222" font-weight="bold" text-anchor="middle">2</text><rect x="560" y="150" width="150" height="66" fill="#D6E6F5" stroke="#1F4E79" stroke-width="2.5"/><text x="635" y="192" font-family="DejaVu Serif" font-size="25" fill="#222" font-weight="bold" text-anchor="middle">3</text><rect x="710" y="150" width="150" height="66" fill="#D6E6F5" stroke="#1F4E79" stroke-width="2.5"/><text x="785" y="192" font-family="DejaVu Serif" font-size="25" fill="#222" font-weight="bold" text-anchor="middle">5</text><rect x="90" y="216" width="170" height="66" fill="white" stroke="#1F4E79" stroke-width="2.5"/><text x="175" y="258" font-family="DejaVu Serif" font-size="25" fill="#222" font-weight="normal" text-anchor="middle">y (Ar)</text><rect x="260" y="216" width="150" height="66" fill="white" stroke="#1F4E79" stroke-width="2.5"/><text x="335" y="258" font-family="DejaVu Serif" font-size="25" fill="#222" font-weight="normal" text-anchor="middle">650</text><rect x="410" y="216" width="150" height="66" fill="white" stroke="#1F4E79" stroke-width="2.5"/><text x="485" y="258" font-family="DejaVu Serif" font-size="25" fill="#222" font-weight="normal" text-anchor="middle">1 300</text><rect x="560" y="216" width="150" height="66" fill="white" stroke="#1F4E79" stroke-width="2.5"/><text x="635" y="258" font-family="DejaVu Serif" font-size="25" fill="#222" font-weight="normal" text-anchor="middle">1 950</text><rect x="710" y="216" width="150" height="66" fill="white" stroke="#1F4E79" stroke-width="2.5"/><text x="785" y="258" font-family="DejaVu Serif" font-size="25" fill="#222" font-weight="normal" text-anchor="middle">3 250</text><rect x="90" y="315" width="350" height="80" rx="10" fill="#FDE7EF" stroke="#C2185B" stroke-width="3"/><text x="265" y="364" font-family="DejaVu Serif" font-size="28" fill="#222" font-weight="normal" text-anchor="middle">y = 650 × x</text></svg>