<svg xmlns="http://www.w3.org/2000/svg" width="1000" height="551"><rect width="100%" height="100%" fill="white"/><text x="40" y="46" font-family="DejaVu Serif" font-size="31" font-weight="bold" fill="#1F4E79">La transition de 1972 à 1975</text><text x="44" y="90" font-family="DejaVu Serif" font-size="23" fill="#333">Trois ans, quatre chefs d’État : la période la plus mouvementée de notre histoire.</text><rect x="120" y="155" width="480" height="60" rx="10" fill="#E8F5E9" stroke="#2E7D32" stroke-width="3"/><text x="360" y="194" font-family="DejaVu Serif" font-size="23" fill="#222" font-weight="normal" text-anchor="middle">Gabriel Ramanantsoa</text><text x="640" y="193" font-family="DejaVu Serif" font-size="21" fill="#2E7D32" font-weight="bold" text-anchor="start">11 oct. 1972 — 5 fév. 1975</text><line x1="360" y1="217" x2="360" y2="239" stroke="#777" stroke-width="3.5"/><polygon points="360,239 353.91048252244275,226.39374056706254 366.08951747755725,226.39374056706254" fill="#777"/><rect x="120" y="241" width="480" height="60" rx="10" fill="#FDE7EF" stroke="#C2185B" stroke-width="3"/><text x="360" y="280" font-family="DejaVu Serif" font-size="23" fill="#222" font-weight="normal" text-anchor="middle">Richard Ratsimandrava</text><text x="640" y="279" font-family="DejaVu Serif" font-size="21" fill="#C2185B" font-weight="bold" text-anchor="start">5 fév. — 11 fév. 1975</text><line x1="360" y1="303" x2="360" y2="325" stroke="#777" stroke-width="3.5"/><polygon points="360,325 353.91048252244275,312.39374056706254 366.08951747755725,312.39374056706254" fill="#777"/><rect x="120" y="327" width="480" height="60" rx="10" fill="#D6E6F5" stroke="#1F4E79" stroke-width="3"/><text x="360" y="366" font-family="DejaVu Serif" font-size="23" fill="#222" font-weight="normal" text-anchor="middle">Gilles Andriamahazo</text><text x="640" y="365" font-family="DejaVu Serif" font-size="21" fill="#1F4E79" font-weight="bold" text-anchor="start">11 fév. — 15 juin 1975</text><line x1="360" y1="389" x2="360" y2="411" stroke="#777" stroke-width="3.5"/><polygon points="360,411 353.91048252244275,398.39374056706254 366.08951747755725,398.39374056706254" fill="#777"/><rect x="120" y="413" width="480" height="60" rx="10" fill="#FFE3C2" stroke="#B25000" stroke-width="3"/><text x="360" y="452" font-family="DejaVu Serif" font-size="23" fill="#222" font-weight="normal" text-anchor="middle">Didier Ignace Ratsiraka</text><text x="640" y="451" font-family="DejaVu Serif" font-size="21" fill="#B25000" font-weight="bold" text-anchor="start">15 juin — 30 déc. 1975</text><text x="500" y="519" font-family="DejaVu Serif" font-size="21" fill="#C2185B" font-weight="bold" text-anchor="middle">mai 1972 : le mouvement populaire met fin à la Première République</text></svg>