<svg xmlns="http://www.w3.org/2000/svg" viewBox="0 0 1100 780" font-family="Georgia, 'Times New Roman', serif">
  <defs>
    <marker id="arrR" markerWidth="10" markerHeight="10" refX="6" refY="3" orient="auto"><path d="M0,0 L7,3 L0,6 Z" fill="#C00000"/></marker>
    <marker id="arrB" markerWidth="10" markerHeight="10" refX="6" refY="3" orient="auto"><path d="M0,0 L7,3 L0,6 Z" fill="#1F4E79"/></marker>
    <marker id="arrG" markerWidth="10" markerHeight="10" refX="6" refY="3" orient="auto"><path d="M0,0 L7,3 L0,6 Z" fill="#8D6E63"/></marker>
  </defs>
  <rect width="1100" height="780" fill="#FFFFFF"/>
  <text x="550" y="50" text-anchor="middle" font-size="32" font-weight="bold" fill="#1F4E79">Le plan du quartier : l'itinéraire maison–école</text>
  <rect x="60" y="110" width="700" height="560" fill="#F5F5F5" stroke="#90A4AE" stroke-width="4"/>
  <rect x="60" y="390" width="700" height="56" fill="#B0BEC5"/>
  <line x1="70" y1="418" x2="750" y2="418" stroke="#FFFFFF" stroke-width="4" stroke-dasharray="20 14"/>
  <rect x="380" y="110" width="56" height="560" fill="#B0BEC5"/>
  <line x1="408" y1="120" x2="408" y2="660" stroke="#FFFFFF" stroke-width="4" stroke-dasharray="20 14"/>
  <rect x="125" y="446" width="30" height="114" fill="#CFD8DC"/>
  <g transform="translate(110,540)"><rect x="8" y="12" width="24" height="18" fill="#FFE0B2" stroke="#FB8C00" stroke-width="2.5"/><polygon points="4,12 20,1 36,12" fill="#FB8C00"/></g>
  <text x="130" y="628" text-anchor="middle" font-size="21" font-weight="bold" fill="#E65100">Ma maison</text>
  <g transform="translate(595,140)"><rect x="6" y="12" width="34" height="19" fill="#C8E6C9" stroke="#66BB6A" stroke-width="2.5"/><line x1="38" y1="12" x2="38" y2="2" stroke="#C00000" stroke-width="2.5"/><polygon points="38,2 48,5 38,8" fill="#C00000"/></g>
  <text x="650" y="212" text-anchor="middle" font-size="21" font-weight="bold" fill="#2E7D32">École</text>
  <g transform="translate(130,150)"><rect x="8" y="14" width="26" height="17" fill="#FFFFFF" stroke="#8D6E63" stroke-width="2.5"/><line x1="21" y1="14" x2="21" y2="3" stroke="#8D6E63" stroke-width="2.5"/><line x1="15" y1="7" x2="27" y2="7" stroke="#8D6E63" stroke-width="2.5"/></g>
  <text x="160" y="240" text-anchor="middle" font-size="21" font-weight="bold" fill="#6D4C41">Église</text>
  <g transform="translate(595,470)"><rect x="5" y="9" width="38" height="20" fill="#FFECB3" stroke="#FBC02D" stroke-width="2.5"/><line x1="12" y1="9" x2="12" y2="29" stroke="#FBC02D" stroke-width="2"/><line x1="21" y1="9" x2="21" y2="29" stroke="#FBC02D" stroke-width="2"/><line x1="30" y1="9" x2="30" y2="29" stroke="#FBC02D" stroke-width="2"/></g>
  <text x="650" y="545" text-anchor="middle" font-size="21" font-weight="bold" fill="#F9A825">Marché</text>
  <rect x="130" y="270" width="96" height="50" fill="#E1F5FE" stroke="#4FC3F7" stroke-width="3"/>
  <text x="178" y="302" text-anchor="middle" font-size="18" fill="#0277BD">Fokontany</text>
  <circle cx="140" cy="560" r="8" fill="#C00000"/>
  <path d="M 140 560 L 140 418 L 408 418 L 408 185 L 585 185" fill="none" stroke="#E53935" stroke-width="6" stroke-dasharray="14 10" marker-end="url(#arrR)"/>
  
  <g>
    <line x1="800" y1="180" x2="800" y2="120" stroke="#C00000" stroke-width="7" marker-end="url(#arrR)"/>
    <circle cx="800" cy="180" r="5" fill="#C00000"/>
    <text x="800" y="108" text-anchor="middle" font-size="30" font-weight="bold" fill="#C00000">N</text>
  </g>
  <rect x="810" y="240" width="290" height="410" rx="12" fill="#FAFAFA" stroke="#90A4AE" stroke-width="2.5"/>
  <text x="955" y="276" text-anchor="middle" font-size="25" font-weight="bold" fill="#1F4E79">Légende</text><g transform="translate(836, 314)"><rect x="8" y="12" width="24" height="18" fill="#FFE0B2" stroke="#FB8C00" stroke-width="2.5"/><polygon points="4,12 20,1 36,12" fill="#FB8C00"/><text x="66" y="19" font-size="21" fill="#37474F">ma maison</text></g><g transform="translate(836, 366)"><rect x="6" y="12" width="34" height="19" fill="#C8E6C9" stroke="#66BB6A" stroke-width="2.5"/><line x1="38" y1="12" x2="38" y2="2" stroke="#C00000" stroke-width="2.5"/><polygon points="38,2 48,5 38,8" fill="#C00000"/><text x="66" y="19" font-size="21" fill="#37474F">l'école</text></g><g transform="translate(836, 418)"><rect x="8" y="14" width="26" height="17" fill="#FFFFFF" stroke="#8D6E63" stroke-width="2.5"/><line x1="21" y1="14" x2="21" y2="3" stroke="#8D6E63" stroke-width="2.5"/><line x1="15" y1="7" x2="27" y2="7" stroke="#8D6E63" stroke-width="2.5"/><text x="66" y="19" font-size="21" fill="#37474F">l'église</text></g><g transform="translate(836, 470)"><rect x="5" y="9" width="38" height="20" fill="#FFECB3" stroke="#FBC02D" stroke-width="2.5"/><line x1="12" y1="9" x2="12" y2="29" stroke="#FBC02D" stroke-width="2"/><line x1="21" y1="9" x2="21" y2="29" stroke="#FBC02D" stroke-width="2"/><line x1="30" y1="9" x2="30" y2="29" stroke="#FBC02D" stroke-width="2"/><text x="66" y="19" font-size="21" fill="#37474F">le marché</text></g><g transform="translate(836, 522)"><rect x="3" y="12" width="42" height="14" fill="#B0BEC5"/><line x1="6" y1="19" x2="42" y2="19" stroke="#FFFFFF" stroke-width="2.5" stroke-dasharray="6 5"/><text x="66" y="19" font-size="21" fill="#37474F">une route</text></g><g transform="translate(836, 574)"><line x1="4" y1="19" x2="44" y2="19" stroke="#E53935" stroke-width="5" stroke-dasharray="8 6"/><text x="66" y="19" font-size="21" fill="#37474F">mon itinéraire</text></g>
  <text x="550" y="760" text-anchor="middle" font-size="24" fill="#546E7A" font-style="italic">En pointillés rouges : le chemin que je suis chaque matin pour aller à l'école.</text>
</svg>