<svg xmlns="http://www.w3.org/2000/svg" width="1000" height="430"><rect width="100%" height="100%" fill="white"/><text x="35" y="48" font-family="serif" font-size="30" font-weight="bold" fill="#1F4E79">Fréquence × 360° = angle</text>
<g font-family="serif">
<rect x="90" y="115" width="160" height="70" rx="10" fill="#EAF2F8" stroke="#1F4E79" stroke-width="3"/><text x="170" y="161" font-size="25" text-anchor="middle" fill="#1F4E79" font-weight="bold">50 %</text><text x="310" y="161" font-size="23" text-anchor="middle" fill="#333">× 360°</text><text x="410" y="161" font-size="23" text-anchor="middle" fill="#222">=</text><rect x="470" y="115" width="140" height="70" rx="10" fill="#FCE4D6" stroke="#C2185B" stroke-width="3"/><text x="540" y="161" font-size="25" text-anchor="middle" fill="#C2185B" font-weight="bold">180°</text><text x="710" y="161" font-size="22" fill="#333">demi-disque</text><rect x="90" y="203" width="160" height="70" rx="10" fill="#EAF2F8" stroke="#1F4E79" stroke-width="3"/><text x="170" y="249" font-size="25" text-anchor="middle" fill="#1F4E79" font-weight="bold">25 %</text><text x="310" y="249" font-size="23" text-anchor="middle" fill="#333">× 360°</text><text x="410" y="249" font-size="23" text-anchor="middle" fill="#222">=</text><rect x="470" y="203" width="140" height="70" rx="10" fill="#FCE4D6" stroke="#C2185B" stroke-width="3"/><text x="540" y="249" font-size="25" text-anchor="middle" fill="#C2185B" font-weight="bold">90°</text><text x="710" y="249" font-size="22" fill="#333">quart de disque</text><rect x="90" y="291" width="160" height="70" rx="10" fill="#EAF2F8" stroke="#1F4E79" stroke-width="3"/><text x="170" y="337" font-size="25" text-anchor="middle" fill="#1F4E79" font-weight="bold">12,5 %</text><text x="310" y="337" font-size="23" text-anchor="middle" fill="#333">× 360°</text><text x="410" y="337" font-size="23" text-anchor="middle" fill="#222">=</text><rect x="470" y="291" width="140" height="70" rx="10" fill="#FCE4D6" stroke="#C2185B" stroke-width="3"/><text x="540" y="337" font-size="25" text-anchor="middle" fill="#C2185B" font-weight="bold">45°</text><text x="710" y="337" font-size="22" fill="#333">huitième de disque</text>
<rect x="620" y="330" width="340" height="60" rx="12" fill="#E9F5EC" stroke="#1E7B34" stroke-width="3.5"/>
<text x="790" y="368" font-size="22" text-anchor="middle" fill="#1E7B34" font-weight="bold">total : 360° obligatoire</text>
</g></svg>