<svg xmlns="http://www.w3.org/2000/svg" width="1000" height="430"><rect width="100%" height="100%" fill="white"/><text x="35" y="48" font-family="serif" font-size="30" font-weight="bold" fill="#1F4E79">L’échelle de probabilité</text>
<g font-family="serif">
<line x1="110" y1="215" x2="890" y2="215" stroke="#222" stroke-width="5"/>
<line x1="110" y1="200" x2="110" y2="230" stroke="#555" stroke-width="2.5"/><line x1="188" y1="200" x2="188" y2="230" stroke="#555" stroke-width="2.5"/><line x1="266" y1="200" x2="266" y2="230" stroke="#555" stroke-width="2.5"/><line x1="344" y1="200" x2="344" y2="230" stroke="#555" stroke-width="2.5"/><line x1="422" y1="200" x2="422" y2="230" stroke="#555" stroke-width="2.5"/><line x1="500" y1="200" x2="500" y2="230" stroke="#555" stroke-width="2.5"/><line x1="578" y1="200" x2="578" y2="230" stroke="#555" stroke-width="2.5"/><line x1="656" y1="200" x2="656" y2="230" stroke="#555" stroke-width="2.5"/><line x1="734" y1="200" x2="734" y2="230" stroke="#555" stroke-width="2.5"/><line x1="812" y1="200" x2="812" y2="230" stroke="#555" stroke-width="2.5"/><line x1="890" y1="200" x2="890" y2="230" stroke="#555" stroke-width="2.5"/>
<text x="110" y="262" font-size="28" text-anchor="middle" fill="#C00000" font-weight="bold">0</text>
<text x="110" y="297" font-size="20" text-anchor="middle" fill="#C00000">impossible</text>
<text x="500" y="262" font-size="28" text-anchor="middle" fill="#B0762E" font-weight="bold">1/2</text>
<text x="500" y="297" font-size="20" text-anchor="middle" fill="#B0762E">une chance sur deux</text>
<text x="890" y="262" font-size="28" text-anchor="middle" fill="#1E7B34" font-weight="bold">1</text>
<text x="890" y="297" font-size="20" text-anchor="middle" fill="#1E7B34">certain</text>
<circle cx="240" cy="215" r="9" fill="#B0762E"/>
<text x="240" y="180" font-size="19" text-anchor="middle" fill="#333">peu probable 1/6</text>
<circle cx="630" cy="215" r="9" fill="#1F4E79"/>
<text x="630" y="180" font-size="19" text-anchor="middle" fill="#333">plutôt probable 2/3</text>
<text x="500" y="365" font-size="22" text-anchor="middle" fill="#333">Toute probabilité vit entre 0 et 1.</text>
<text x="500" y="400" font-size="21" text-anchor="middle" fill="#555">Certain à gauche ? Jamais : 0 impossible, 1 certain.</text>
</g></svg>