<svg xmlns="http://www.w3.org/2000/svg" width="1000" height="680"><rect width="100%" height="100%" fill="white"/><text x="40" y="46" font-family="DejaVu Serif" font-size="31" font-weight="bold" fill="#1F4E79">La famille des polygones</text><text x="44" y="90" font-family="DejaVu Serif" font-size="23" fill="#333">Une ligne brisée FERMÉE : chaque figure se nomme d’après son nombre de côtés.</text><polygon points="70,295 190,295 130,185" fill="#E8F5E9" stroke="#2E7D32" stroke-width="3"/><text x="130" y="327" font-family="DejaVu Serif" font-size="18" fill="#2E7D32" font-weight="bold" text-anchor="middle">triangle (3)</text><polygon points="250,295 370,295 370,185 250,185" fill="#D6E6F5" stroke="#1F4E79" stroke-width="3"/><path d="M 268 295 L 268 277 L 250 277" fill="none" stroke="#C2185B" stroke-width="2.5"/><text x="310" y="327" font-family="DejaVu Serif" font-size="18" fill="#1F4E79" font-weight="bold" text-anchor="middle">carré (4)</text><polygon points="430,295 610,295 610,200 430,200" fill="#D6E6F5" stroke="#1F4E79" stroke-width="3"/><text x="520" y="327" font-family="DejaVu Serif" font-size="18" fill="#1F4E79" font-weight="bold" text-anchor="middle">rectangle (4)</text><polygon points="670,295 740,240 670,185 600,240" fill="#FDE7EF" stroke="#C2185B" stroke-width="3"/><text x="670" y="327" font-family="DejaVu Serif" font-size="18" fill="#C2185B" font-weight="bold" text-anchor="middle">losange (4)</text><polygon points="790,295 950,295 910,200 830,200" fill="#FFF3E0" stroke="#B25000" stroke-width="3"/><text x="870" y="327" font-family="DejaVu Serif" font-size="18" fill="#B25000" font-weight="bold" text-anchor="middle">trapèze (4)</text><polygon points="260,425 188.6707612778635,476.8237254218789 215.9161060780645,560.676274578121 304.08389392193544,560.676274578121 331.32923872213655,476.823725421879" fill="#E8F5E9" stroke="#2E7D32" stroke-width="3"/><text x="260" y="605" font-family="DejaVu Serif" font-size="18" fill="#2E7D32" font-weight="bold" text-anchor="middle">pentagone (5)</text><polygon points="595,500 557.5,435.0480947161671 482.5,435.0480947161671 445,500 482.49999999999994,564.9519052838328 557.5,564.951905283833" fill="#FDE7EF" stroke="#C2185B" stroke-width="3"/><text x="520" y="605" font-family="DejaVu Serif" font-size="18" fill="#C2185B" font-weight="bold" text-anchor="middle">hexagone (6)</text><circle cx="790" cy="500" r="72" fill="white" stroke="#888" stroke-width="3"/><text x="790" y="605" font-family="DejaVu Serif" font-size="18" fill="#888" font-weight="bold" text-anchor="middle">cercle : PAS un polygone</text><text x="500" y="648" font-family="DejaVu Serif" font-size="19" fill="#1F4E79" font-weight="bold" text-anchor="middle">les quadrilatères (4 côtés) : carré, rectangle, losange, trapèze…</text></svg>