<svg xmlns="http://www.w3.org/2000/svg" width="1000" height="565"><rect width="100%" height="100%" fill="white"/><text x="40" y="46" font-family="DejaVu Serif" font-size="31" font-weight="bold" fill="#1F4E79">Construire des patrons de prismes</text><text x="44" y="90" font-family="DejaVu Serif" font-size="23" fill="#333">Le patron d’un cube : six carrés égaux, repliés pour fermer la boîte.</text><rect x="395" y="150" width="95" height="95" fill="#D6E6F5" stroke="#1F4E79" stroke-width="3"/><rect x="300" y="245" width="95" height="95" fill="#D6E6F5" stroke="#1F4E79" stroke-width="3"/><rect x="395" y="245" width="95" height="95" fill="#D6E6F5" stroke="#1F4E79" stroke-width="3"/><rect x="490" y="245" width="95" height="95" fill="#D6E6F5" stroke="#1F4E79" stroke-width="3"/><rect x="395" y="340" width="95" height="95" fill="#D6E6F5" stroke="#1F4E79" stroke-width="3"/><rect x="395" y="435" width="95" height="95" fill="#D6E6F5" stroke="#1F4E79" stroke-width="3"/><rect x="700" y="290" width="90" height="90" fill="#D6E6F5" stroke="#1F4E79" stroke-width="3"/><polygon points="700,290 734,256 824,256 790,290" fill="#C5DCF0" stroke="#1F4E79" stroke-width="3"/><polygon points="790,290 824,256 824,346 790,380" fill="#AECDe8" stroke="#1F4E79" stroke-width="3"/><line x1="640" y1="320" x2="690" y2="320" stroke="#2E7D32" stroke-width="4"/><polygon points="690,320 677.3937405670625,326.08951747755725 677.3937405670625,313.91048252244275" fill="#2E7D32"/></svg>